<svg xmlns="http://www.w3.org/2000/svg" xmlns:xlink="http://www.w3.org/1999/xlink" width="500" zoomAndPan="magnify" viewBox="0 0 375 374.999991" height="500" preserveAspectRatio="xMidYMid meet" version="1.0"><defs><clipPath id="e88ed2531d"><path d="M 5.625 3 L 307 3 L 307 373 L 5.625 373 Z M 5.625 3 " clip-rule="nonzero"/></clipPath></defs><g clip-path="url(#e88ed2531d)"><path fill="#7a1cac" d="M 251.464844 275.425781 L 180.082031 275.425781 C 159.941406 275.425781 143.554688 259.042969 143.554688 238.890625 C 143.554688 218.75 159.941406 202.355469 180.082031 202.355469 C 192.523438 202.355469 204.214844 207.207031 213.007812 216 L 251.992188 254.976562 C 257.371094 260.363281 264.3125 263.402344 271.53125 263.535156 C 296.683594 264.023438 309.308594 233.492188 291.757812 215.890625 L 234.53125 158.921875 C 227.007812 151.429688 217.21875 147.042969 206.714844 146.363281 L 167.769531 185.3125 C 166.613281 186.46875 165.085938 187.050781 163.566406 187.050781 C 158.320312 187.050781 155.613281 180.652344 159.371094 176.910156 C 175.28125 160.996094 153.707031 182.558594 277.757812 58.53125 C 283.054688 53.226562 285.96875 46.1875 285.96875 38.691406 C 285.96875 13.78125 255.644531 1.292969 238.089844 18.863281 C 202.96875 53.972656 217.394531 38.363281 209.566406 51.949219 L 133.277344 184.078125 C 132.179688 185.988281 130.183594 187.050781 128.132812 187.050781 C 123.59375 187.050781 120.699219 182.117188 122.984375 178.136719 C 205.6875 34.894531 200.765625 44.257812 202.105469 39.175781 C 205.40625 26.796875 199.804688 13.914062 189.011719 7.6875 C 175.613281 -0.046875 158.425781 4.558594 150.699219 17.949219 L 101.050781 103.945312 L 101.050781 181.109375 C 101.050781 184.390625 98.390625 187.050781 95.109375 187.050781 C 91.824219 187.050781 89.167969 184.390625 89.167969 181.109375 L 89.167969 55.347656 C 89.167969 41.753906 78.109375 30.695312 64.519531 30.695312 C 50.925781 30.695312 39.867188 41.753906 39.867188 55.347656 L 39.867188 169.78125 C 39.867188 182.601562 37.371094 195.09375 32.441406 206.925781 C 11.804688 256.449219 5.878906 265.914062 5.878906 287.609375 C 5.878906 334.316406 43.875 372.3125 90.578125 372.3125 C 139.144531 372.3125 143.621094 374.933594 178.683594 353 C 194.054688 343.398438 211.753906 338.324219 229.871094 338.324219 L 299.050781 338.324219 C 303.21875 338.324219 306.707031 334.945312 306.707031 330.644531 C 306.695312 300.203125 281.914062 275.425781 251.464844 275.425781 Z M 101.050781 278.269531 C 101.050781 308.4375 84.011719 336.070312 56.976562 349.578125 C 53.953125 351.074219 50.441406 349.792969 49.007812 346.917969 C 47.539062 343.984375 48.726562 340.421875 51.667969 338.949219 C 74.796875 327.382812 89.167969 304.128906 89.167969 278.269531 L 89.167969 249.089844 C 89.167969 245.804688 91.824219 243.148438 95.109375 243.148438 C 98.390625 243.148438 101.050781 245.804688 101.050781 249.089844 Z M 101.050781 278.269531 " fill-opacity="1" fill-rule="nonzero"/></g><path fill="#7a1cac" d="M 372.523438 267.101562 C 370.203125 264.78125 366.441406 264.78125 364.121094 267.101562 L 344.554688 286.667969 L 344.554688 217.828125 C 344.554688 168.683594 304.578125 128.699219 255.433594 128.699219 C 252.148438 128.699219 249.492188 131.363281 249.492188 134.644531 C 249.492188 137.925781 252.148438 140.585938 255.433594 140.585938 C 298.023438 140.585938 332.671875 175.234375 332.671875 217.828125 L 332.671875 286.601562 L 313.175781 267.101562 C 310.855469 264.785156 307.089844 264.78125 304.769531 267.101562 C 302.449219 269.421875 302.449219 273.183594 304.769531 275.503906 L 333.953125 304.683594 C 336.175781 307.507812 340.328125 307.71875 342.832031 305.199219 C 343.679688 304.347656 336.984375 311.046875 372.527344 275.503906 C 374.847656 273.183594 374.847656 269.425781 372.523438 267.101562 Z M 372.523438 267.101562 " fill-opacity="1" fill-rule="nonzero"/></svg>